<svg xmlns="http://www.w3.org/2000/svg" xmlns:xlink="http://www.w3.org/1999/xlink" width="312" zoomAndPan="magnify" viewBox="0 0 234 104.999996" height="140" preserveAspectRatio="xMidYMid meet" version="1.0"><defs><g/><clipPath id="54754e7255"><path d="M 0 17.660156 L 76.5 17.660156 L 76.5 77.660156 L 0 77.660156 Z M 0 17.660156 " clip-rule="nonzero"/></clipPath><clipPath id="cc4c15d843"><path d="M 11 0.660156 L 76.5 0.660156 L 76.5 60.660156 L 11 60.660156 Z M 11 0.660156 " clip-rule="nonzero"/></clipPath><clipPath id="eb9a3c546d"><path d="M 0.0703125 13 L 22 13 L 22 47 L 0.0703125 47 Z M 0.0703125 13 " clip-rule="nonzero"/></clipPath><clipPath id="9cdfc405ac"><rect x="0" width="77" y="0" height="61"/></clipPath></defs><g clip-path="url(#54754e7255)"><g transform="matrix(1, 0, 0, 1, 0, 17)"><g clip-path="url(#9cdfc405ac)"><g clip-path="url(#cc4c15d843)"><path fill="#ffffff" d="M 13.972656 49.878906 L 52.628906 49.878906 C 54.421875 49.878906 55.941406 48.542969 56.1875 46.78125 L 60.894531 11.417969 C 60.894531 11.417969 60.894531 11.417969 60.894531 11.402344 C 61.6875 5.28125 66.945312 0.644531 73.128906 0.644531 L 74.054688 0.644531 C 75.316406 0.644531 76.335938 1.664062 76.335938 2.925781 C 76.335938 4.1875 75.316406 5.203125 74.054688 5.203125 L 73.128906 5.203125 C 69.222656 5.203125 65.910156 8.121094 65.410156 11.996094 C 65.410156 11.996094 65.410156 11.996094 65.410156 12.011719 L 60.699219 47.371094 C 60.167969 51.398438 56.703125 54.4375 52.628906 54.4375 L 51.261719 54.4375 C 51.214844 57.75 48.542969 60.425781 45.214844 60.425781 C 41.886719 60.425781 39.210938 57.75 39.167969 54.4375 L 29.714844 54.4375 C 29.667969 57.75 26.996094 60.425781 23.667969 60.425781 C 20.339844 60.425781 17.664062 57.75 17.617188 54.4375 L 13.972656 54.4375 C 12.710938 54.4375 11.691406 53.417969 11.691406 52.160156 C 11.691406 50.898438 12.710938 49.878906 13.972656 49.878906 Z M 13.972656 49.878906 " fill-opacity="1" fill-rule="nonzero"/></g><path fill="#77bf3f" d="M 27.617188 11.113281 L 35.140625 10.203125 C 38.011719 14.792969 44.242188 22.695312 55.273438 27.40625 L 53.175781 43.070312 C 37.601562 34.089844 30.0625 17.542969 27.617188 11.113281 Z M 27.617188 11.113281 " fill-opacity="1" fill-rule="nonzero"/><path fill="#50b948" d="M 22.953125 11.675781 C 25.09375 17.785156 32.800781 36.414062 50.230469 46.6875 L 26.3125 46.6875 C 18.289062 32.664062 16.3125 17.332031 15.855469 12.527344 Z M 22.953125 11.675781 " fill-opacity="1" fill-rule="nonzero"/><path fill="#fbcc06" d="M 55.910156 22.695312 C 47.980469 19 42.980469 13.515625 40.214844 9.59375 L 55.03125 7.816406 C 55.730469 7.726562 56.429688 7.984375 56.929688 8.488281 C 57.429688 8.988281 57.660156 9.6875 57.570312 10.386719 Z M 55.910156 22.695312 " fill-opacity="1" fill-rule="nonzero"/><g clip-path="url(#eb9a3c546d)"><path fill="#38a34a" d="M 0.796875 15.019531 C 1.175781 14.535156 1.722656 14.230469 2.332031 14.15625 L 11.34375 13.074219 C 11.800781 18.164062 13.667969 32.648438 21.097656 46.6875 L 11.707031 46.6875 C 7.515625 46.6875 3.929688 43.558594 3.378906 39.394531 L 0.371094 16.722656 C 0.25 16.113281 0.417969 15.507812 0.796875 15.019531 Z M 0.796875 15.019531 " fill-opacity="1" fill-rule="nonzero"/></g></g></g></g><g fill="#ffffff" fill-opacity="1"><g transform="translate(83.139255, 45.537395)"><g><path d="M 17.1875 -12.65625 C 18.238281 -12.113281 19.054688 -11.34375 19.640625 -10.34375 C 20.222656 -9.351562 20.515625 -8.21875 20.515625 -6.9375 C 20.515625 -5.65625 20.175781 -4.488281 19.5 -3.4375 C 18.832031 -2.382812 17.921875 -1.546875 16.765625 -0.921875 C 15.609375 -0.304688 14.34375 0 12.96875 0 L 2.75 0 L 2.75 -24.015625 L 12.703125 -24.015625 C 14.066406 -24.015625 15.289062 -23.742188 16.375 -23.203125 C 17.46875 -22.671875 18.328125 -21.9375 18.953125 -21 C 19.585938 -20.0625 19.90625 -19.007812 19.90625 -17.84375 C 19.90625 -16.8125 19.660156 -15.835938 19.171875 -14.921875 C 18.691406 -14.003906 18.03125 -13.25 17.1875 -12.65625 Z M 14.859375 -17.015625 C 14.859375 -17.773438 14.617188 -18.394531 14.140625 -18.875 C 13.660156 -19.351562 13.007812 -19.59375 12.1875 -19.59375 L 7.859375 -19.59375 L 7.859375 -14.484375 L 12.1875 -14.484375 C 13.007812 -14.484375 13.660156 -14.722656 14.140625 -15.203125 C 14.617188 -15.679688 14.859375 -16.285156 14.859375 -17.015625 Z M 12.453125 -4.765625 C 13.328125 -4.765625 14.019531 -5.015625 14.53125 -5.515625 C 15.039062 -6.023438 15.296875 -6.679688 15.296875 -7.484375 C 15.296875 -8.253906 15.039062 -8.890625 14.53125 -9.390625 C 14.019531 -9.898438 13.328125 -10.15625 12.453125 -10.15625 L 7.859375 -10.15625 L 7.859375 -4.765625 Z M 12.453125 -4.765625 "/></g></g></g><g fill="#ffffff" fill-opacity="1"><g transform="translate(105.167837, 45.537395)"><g><path d="M 2.40625 -21 L 2.40625 -25.671875 L 7.40625 -25.671875 L 7.40625 -21 Z M 2.40625 0 L 2.40625 -18.53125 L 7.40625 -18.53125 L 7.40625 0 Z M 2.40625 0 "/></g></g></g><g fill="#ffffff" fill-opacity="1"><g transform="translate(114.98119, 45.537395)"><g><path d="M 19.421875 0 L 13.34375 0 L 7.40625 -8.859375 L 7.40625 0 L 2.40625 0 L 2.40625 -25.21875 L 7.40625 -25.21875 L 7.40625 -10.296875 L 12.96875 -18.53125 L 18.734375 -18.53125 L 12.484375 -9.703125 Z M 19.421875 0 "/></g></g></g><g fill="#ffffff" fill-opacity="1"><g transform="translate(134.23046, 45.537395)"><g><path d="M 17.53125 -18.5625 L 21.28125 -18.5625 L 21.28125 -0.03125 L 17.328125 -0.03125 L 16.921875 -1.6875 C 16.117188 -1 15.207031 -0.457031 14.1875 -0.0625 C 13.164062 0.320312 12.070312 0.515625 10.90625 0.515625 C 9.050781 0.515625 7.390625 0.0859375 5.921875 -0.765625 C 4.460938 -1.628906 3.3125 -2.796875 2.46875 -4.265625 C 1.625 -5.742188 1.203125 -7.421875 1.203125 -9.296875 C 1.203125 -11.148438 1.625 -12.8125 2.46875 -14.28125 C 3.3125 -15.757812 4.460938 -16.921875 5.921875 -17.765625 C 7.390625 -18.617188 9.050781 -19.046875 10.90625 -19.046875 C 12.101562 -19.046875 13.210938 -18.84375 14.234375 -18.4375 C 15.265625 -18.039062 16.179688 -17.488281 16.984375 -16.78125 Z M 11.328125 -4.21875 C 12.285156 -4.21875 13.144531 -4.4375 13.90625 -4.875 C 14.675781 -5.3125 15.273438 -5.910156 15.703125 -6.671875 C 16.140625 -7.441406 16.359375 -8.316406 16.359375 -9.296875 C 16.359375 -10.253906 16.140625 -11.113281 15.703125 -11.875 C 15.273438 -12.644531 14.675781 -13.253906 13.90625 -13.703125 C 13.144531 -14.148438 12.285156 -14.375 11.328125 -14.375 C 10.335938 -14.375 9.460938 -14.148438 8.703125 -13.703125 C 7.953125 -13.253906 7.359375 -12.644531 6.921875 -11.875 C 6.492188 -11.113281 6.28125 -10.253906 6.28125 -9.296875 C 6.28125 -8.316406 6.492188 -7.445312 6.921875 -6.6875 C 7.359375 -5.9375 7.953125 -5.335938 8.703125 -4.890625 C 9.460938 -4.441406 10.335938 -4.21875 11.328125 -4.21875 Z M 11.328125 -4.21875 "/></g></g></g><g fill="#ffffff" fill-opacity="1"><g transform="translate(157.90603, 45.537395)"><g><path d="M 2.40625 0 L 2.40625 -25.21875 L 7.40625 -25.21875 L 7.40625 0 Z M 2.40625 0 "/></g></g></g><g fill="#ffffff" fill-opacity="1"><g transform="translate(167.719384, 45.537395)"><g><path d="M 12.53125 -19.046875 C 14.375 -19.046875 16.03125 -18.617188 17.5 -17.765625 C 18.96875 -16.921875 20.125 -15.757812 20.96875 -14.28125 C 21.8125 -12.8125 22.234375 -11.140625 22.234375 -9.265625 C 22.234375 -7.390625 21.8125 -5.710938 20.96875 -4.234375 C 20.125 -2.765625 18.96875 -1.597656 17.5 -0.734375 C 16.03125 0.117188 14.375 0.546875 12.53125 0.546875 C 11.5625 0.546875 10.640625 0.40625 9.765625 0.125 C 8.898438 -0.144531 8.113281 -0.519531 7.40625 -1 L 7.40625 6.6875 L 2.40625 6.6875 L 2.40625 -18.53125 L 5.734375 -18.53125 L 6.59375 -16.84375 C 7.363281 -17.53125 8.253906 -18.066406 9.265625 -18.453125 C 10.273438 -18.847656 11.363281 -19.046875 12.53125 -19.046875 Z M 12.109375 -4.1875 C 13.066406 -4.1875 13.929688 -4.410156 14.703125 -4.859375 C 15.472656 -5.304688 16.070312 -5.910156 16.5 -6.671875 C 16.9375 -7.441406 17.15625 -8.304688 17.15625 -9.265625 C 17.15625 -10.222656 16.9375 -11.082031 16.5 -11.84375 C 16.070312 -12.613281 15.472656 -13.222656 14.703125 -13.671875 C 13.929688 -14.117188 13.066406 -14.34375 12.109375 -14.34375 C 11.128906 -14.34375 10.257812 -14.117188 9.5 -13.671875 C 8.75 -13.222656 8.15625 -12.613281 7.71875 -11.84375 C 7.28125 -11.082031 7.0625 -10.222656 7.0625 -9.265625 C 7.0625 -8.304688 7.28125 -7.441406 7.71875 -6.671875 C 8.15625 -5.910156 8.75 -5.304688 9.5 -4.859375 C 10.257812 -4.410156 11.128906 -4.1875 12.109375 -4.1875 Z M 12.109375 -4.1875 "/></g></g></g><g fill="#ffffff" fill-opacity="1"><g transform="translate(191.120455, 45.537395)"><g><path d="M 11.21875 0.515625 C 9.300781 0.515625 7.585938 0.0859375 6.078125 -0.765625 C 4.566406 -1.628906 3.375 -2.796875 2.5 -4.265625 C 1.632812 -5.742188 1.203125 -7.410156 1.203125 -9.265625 C 1.203125 -11.140625 1.632812 -12.8125 2.5 -14.28125 C 3.375 -15.757812 4.566406 -16.921875 6.078125 -17.765625 C 7.585938 -18.617188 9.300781 -19.046875 11.21875 -19.046875 C 13.113281 -19.046875 14.816406 -18.617188 16.328125 -17.765625 C 17.835938 -16.921875 19.023438 -15.757812 19.890625 -14.28125 C 20.765625 -12.8125 21.203125 -11.140625 21.203125 -9.265625 C 21.203125 -7.410156 20.765625 -5.742188 19.890625 -4.265625 C 19.023438 -2.796875 17.835938 -1.628906 16.328125 -0.765625 C 14.816406 0.0859375 13.113281 0.515625 11.21875 0.515625 Z M 11.21875 -4.1875 C 12.65625 -4.1875 13.832031 -4.65625 14.75 -5.59375 C 15.664062 -6.53125 16.125 -7.753906 16.125 -9.265625 C 16.125 -10.773438 15.664062 -12 14.75 -12.9375 C 13.832031 -13.875 12.65625 -14.34375 11.21875 -14.34375 C 9.757812 -14.34375 8.570312 -13.875 7.65625 -12.9375 C 6.738281 -12 6.28125 -10.773438 6.28125 -9.265625 C 6.28125 -7.753906 6.738281 -6.53125 7.65625 -5.59375 C 8.570312 -4.65625 9.757812 -4.1875 11.21875 -4.1875 Z M 11.21875 -4.1875 "/></g></g></g><g fill="#ffffff" fill-opacity="1"><g transform="translate(83.139255, 76.287393)"><g><path d="M 10.703125 0.484375 C 8.867188 0.484375 7.253906 0.148438 5.859375 -0.515625 C 4.472656 -1.179688 3.382812 -2.128906 2.59375 -3.359375 C 1.800781 -4.597656 1.40625 -6.070312 1.40625 -7.78125 L 6.65625 -7.78125 C 6.65625 -6.613281 7.0625 -5.75 7.875 -5.1875 C 8.6875 -4.632812 9.617188 -4.359375 10.671875 -4.359375 C 11.335938 -4.359375 11.960938 -4.46875 12.546875 -4.6875 C 13.128906 -4.90625 13.609375 -5.222656 13.984375 -5.640625 C 14.359375 -6.066406 14.546875 -6.578125 14.546875 -7.171875 C 14.546875 -7.785156 14.328125 -8.269531 13.890625 -8.625 C 13.460938 -8.976562 12.878906 -9.269531 12.140625 -9.5 C 11.410156 -9.726562 10.613281 -9.945312 9.75 -10.15625 C 8.851562 -10.363281 7.9375 -10.613281 7 -10.90625 C 6.0625 -11.207031 5.191406 -11.601562 4.390625 -12.09375 C 3.585938 -12.582031 2.945312 -13.242188 2.46875 -14.078125 C 1.988281 -14.921875 1.75 -15.984375 1.75 -17.265625 C 1.75 -19.566406 2.53125 -21.34375 4.09375 -22.59375 C 5.664062 -23.84375 7.789062 -24.46875 10.46875 -24.46875 C 13.207031 -24.46875 15.332031 -23.773438 16.84375 -22.390625 C 18.351562 -21.003906 19.109375 -19.125 19.109375 -16.75 L 13.96875 -16.75 C 13.96875 -17.769531 13.597656 -18.523438 12.859375 -19.015625 C 12.128906 -19.515625 11.285156 -19.765625 10.328125 -19.765625 C 9.484375 -19.765625 8.707031 -19.582031 8 -19.21875 C 7.289062 -18.851562 6.9375 -18.28125 6.9375 -17.5 C 6.9375 -16.925781 7.144531 -16.472656 7.5625 -16.140625 C 7.988281 -15.804688 8.550781 -15.53125 9.25 -15.3125 C 9.945312 -15.101562 10.71875 -14.894531 11.5625 -14.6875 C 12.476562 -14.457031 13.414062 -14.1875 14.375 -13.875 C 15.332031 -13.570312 16.222656 -13.15625 17.046875 -12.625 C 17.867188 -12.101562 18.535156 -11.40625 19.046875 -10.53125 C 19.566406 -9.664062 19.828125 -8.566406 19.828125 -7.234375 C 19.828125 -5.492188 19.410156 -4.050781 18.578125 -2.90625 C 17.742188 -1.769531 16.640625 -0.921875 15.265625 -0.359375 C 13.890625 0.203125 12.367188 0.484375 10.703125 0.484375 Z M 10.703125 0.484375 "/></g></g></g><g fill="#ffffff" fill-opacity="1"><g transform="translate(104.37864, 76.287393)"><g><path d="M 13 -18.96875 C 15.101562 -18.96875 16.757812 -18.269531 17.96875 -16.875 C 19.1875 -15.476562 19.796875 -13.601562 19.796875 -11.25 L 19.796875 0 L 14.78125 0 L 14.78125 -10.4375 C 14.78125 -11.800781 14.53125 -12.832031 14.03125 -13.53125 C 13.53125 -14.226562 12.707031 -14.578125 11.5625 -14.578125 C 10.320312 -14.578125 9.316406 -14.148438 8.546875 -13.296875 C 7.785156 -12.441406 7.40625 -11.257812 7.40625 -9.75 L 7.40625 0 L 2.40625 0 L 2.40625 -25.21875 L 7.40625 -25.21875 L 7.40625 -16.8125 C 8.113281 -17.476562 8.945312 -18.003906 9.90625 -18.390625 C 10.875 -18.773438 11.90625 -18.96875 13 -18.96875 Z M 13 -18.96875 "/></g></g></g><g fill="#ffffff" fill-opacity="1"><g transform="translate(126.372901, 76.287393)"><g><path d="M 11.21875 0.515625 C 9.300781 0.515625 7.585938 0.0859375 6.078125 -0.765625 C 4.566406 -1.628906 3.375 -2.796875 2.5 -4.265625 C 1.632812 -5.742188 1.203125 -7.410156 1.203125 -9.265625 C 1.203125 -11.140625 1.632812 -12.8125 2.5 -14.28125 C 3.375 -15.757812 4.566406 -16.921875 6.078125 -17.765625 C 7.585938 -18.617188 9.300781 -19.046875 11.21875 -19.046875 C 13.113281 -19.046875 14.816406 -18.617188 16.328125 -17.765625 C 17.835938 -16.921875 19.023438 -15.757812 19.890625 -14.28125 C 20.765625 -12.8125 21.203125 -11.140625 21.203125 -9.265625 C 21.203125 -7.410156 20.765625 -5.742188 19.890625 -4.265625 C 19.023438 -2.796875 17.835938 -1.628906 16.328125 -0.765625 C 14.816406 0.0859375 13.113281 0.515625 11.21875 0.515625 Z M 11.21875 -4.1875 C 12.65625 -4.1875 13.832031 -4.65625 14.75 -5.59375 C 15.664062 -6.53125 16.125 -7.753906 16.125 -9.265625 C 16.125 -10.773438 15.664062 -12 14.75 -12.9375 C 13.832031 -13.875 12.65625 -14.34375 11.21875 -14.34375 C 9.757812 -14.34375 8.570312 -13.875 7.65625 -12.9375 C 6.738281 -12 6.28125 -10.773438 6.28125 -9.265625 C 6.28125 -7.753906 6.738281 -6.53125 7.65625 -5.59375 C 8.570312 -4.65625 9.757812 -4.1875 11.21875 -4.1875 Z M 11.21875 -4.1875 "/></g></g></g><g fill="#ffffff" fill-opacity="1"><g transform="translate(148.77891, 76.287393)"><g><path d="M 12.53125 -19.046875 C 14.375 -19.046875 16.03125 -18.617188 17.5 -17.765625 C 18.96875 -16.921875 20.125 -15.757812 20.96875 -14.28125 C 21.8125 -12.8125 22.234375 -11.140625 22.234375 -9.265625 C 22.234375 -7.390625 21.8125 -5.710938 20.96875 -4.234375 C 20.125 -2.765625 18.96875 -1.597656 17.5 -0.734375 C 16.03125 0.117188 14.375 0.546875 12.53125 0.546875 C 11.5625 0.546875 10.640625 0.40625 9.765625 0.125 C 8.898438 -0.144531 8.113281 -0.519531 7.40625 -1 L 7.40625 6.6875 L 2.40625 6.6875 L 2.40625 -18.53125 L 5.734375 -18.53125 L 6.59375 -16.84375 C 7.363281 -17.53125 8.253906 -18.066406 9.265625 -18.453125 C 10.273438 -18.847656 11.363281 -19.046875 12.53125 -19.046875 Z M 12.109375 -4.1875 C 13.066406 -4.1875 13.929688 -4.410156 14.703125 -4.859375 C 15.472656 -5.304688 16.070312 -5.910156 16.5 -6.671875 C 16.9375 -7.441406 17.15625 -8.304688 17.15625 -9.265625 C 17.15625 -10.222656 16.9375 -11.082031 16.5 -11.84375 C 16.070312 -12.613281 15.472656 -13.222656 14.703125 -13.671875 C 13.929688 -14.117188 13.066406 -14.34375 12.109375 -14.34375 C 11.128906 -14.34375 10.257812 -14.117188 9.5 -13.671875 C 8.75 -13.222656 8.15625 -12.613281 7.71875 -11.84375 C 7.28125 -11.082031 7.0625 -10.222656 7.0625 -9.265625 C 7.0625 -8.304688 7.28125 -7.441406 7.71875 -6.671875 C 8.15625 -5.910156 8.75 -5.304688 9.5 -4.859375 C 10.257812 -4.410156 11.128906 -4.1875 12.109375 -4.1875 Z M 12.109375 -4.1875 "/></g></g></g></svg>