<svg xmlns="http://www.w3.org/2000/svg" xmlns:xlink="http://www.w3.org/1999/xlink" width="309" zoomAndPan="magnify" viewBox="0 0 231.75 104.999996" height="140" preserveAspectRatio="xMidYMid meet" version="1.0"><defs><g/><clipPath id="7ce2872bd2"><path d="M 0 0.0546875 L 231.5 0.0546875 L 231.5 104.941406 L 0 104.941406 Z M 0 0.0546875 " clip-rule="nonzero"/></clipPath><clipPath id="4111e112f1"><path d="M 0 17.699219 L 76.417969 17.699219 L 76.417969 77.632812 L 0 77.632812 Z M 0 17.699219 " clip-rule="nonzero"/></clipPath><clipPath id="3650f7c0eb"><path d="M 11 0.699219 L 76.417969 0.699219 L 76.417969 60.632812 L 11 60.632812 Z M 11 0.699219 " clip-rule="nonzero"/></clipPath><clipPath id="f896d9da72"><path d="M 0.0703125 13 L 22 13 L 22 47 L 0.0703125 47 Z M 0.0703125 13 " clip-rule="nonzero"/></clipPath><clipPath id="1d66759ce3"><rect x="0" width="77" y="0" height="61"/></clipPath></defs><g clip-path="url(#7ce2872bd2)"><path fill="#ffffff" d="M 0 0.0546875 L 231.5 0.0546875 L 231.5 104.945312 L 0 104.945312 Z M 0 0.0546875 " fill-opacity="1" fill-rule="nonzero"/></g><g clip-path="url(#4111e112f1)"><g transform="matrix(1, 0, 0, 1, 0, 17)"><g clip-path="url(#1d66759ce3)"><g clip-path="url(#3650f7c0eb)"><path fill="#202020" d="M 13.957031 49.863281 L 52.574219 49.863281 C 54.363281 49.863281 55.882812 48.527344 56.125 46.765625 L 60.832031 11.445312 C 60.832031 11.445312 60.832031 11.445312 60.832031 11.429688 C 61.621094 5.3125 66.871094 0.683594 73.050781 0.683594 L 73.976562 0.683594 C 75.234375 0.683594 76.253906 1.699219 76.253906 2.960938 C 76.253906 4.21875 75.234375 5.238281 73.976562 5.238281 L 73.050781 5.238281 C 69.148438 5.238281 65.839844 8.152344 65.339844 12.023438 C 65.339844 12.023438 65.339844 12.023438 65.339844 12.035156 L 60.632812 47.359375 C 60.101562 51.382812 56.640625 54.417969 52.574219 54.417969 L 51.207031 54.417969 C 51.160156 57.726562 48.488281 60.398438 45.164062 60.398438 C 41.839844 60.398438 39.167969 57.726562 39.125 54.417969 L 29.683594 54.417969 C 29.636719 57.726562 26.964844 60.398438 23.640625 60.398438 C 20.316406 60.398438 17.644531 57.726562 17.601562 54.417969 L 13.957031 54.417969 C 12.695312 54.417969 11.679688 53.402344 11.679688 52.140625 C 11.679688 50.878906 12.695312 49.863281 13.957031 49.863281 Z M 13.957031 49.863281 " fill-opacity="1" fill-rule="nonzero"/></g><path fill="#77bf3f" d="M 27.589844 11.140625 L 35.101562 10.230469 C 37.96875 14.816406 44.195312 22.707031 55.214844 27.414062 L 53.121094 43.0625 C 37.5625 34.09375 30.03125 17.5625 27.589844 11.140625 Z M 27.589844 11.140625 " fill-opacity="1" fill-rule="nonzero"/><path fill="#50b948" d="M 22.929688 11.703125 C 25.066406 17.804688 32.765625 36.414062 50.175781 46.675781 L 26.28125 46.675781 C 18.269531 32.664062 16.292969 17.351562 15.839844 12.554688 Z M 22.929688 11.703125 " fill-opacity="1" fill-rule="nonzero"/><path fill="#fbcc06" d="M 55.851562 22.707031 C 47.929688 19.019531 42.933594 13.539062 40.171875 9.625 L 54.972656 7.847656 C 55.667969 7.757812 56.367188 8.015625 56.867188 8.515625 C 57.371094 9.015625 57.597656 9.714844 57.507812 10.414062 Z M 55.851562 22.707031 " fill-opacity="1" fill-rule="nonzero"/><g clip-path="url(#f896d9da72)"><path fill="#38a34a" d="M 0.796875 15.042969 C 1.175781 14.558594 1.722656 14.253906 2.328125 14.175781 L 11.332031 13.101562 C 11.785156 18.183594 13.652344 32.652344 21.078125 46.675781 L 11.695312 46.675781 C 7.507812 46.675781 3.921875 43.550781 3.378906 39.390625 L 0.371094 16.742188 C 0.25 16.136719 0.417969 15.527344 0.796875 15.042969 Z M 0.796875 15.042969 " fill-opacity="1" fill-rule="nonzero"/></g></g></g></g><g fill="#202020" fill-opacity="1"><g transform="translate(83.049664, 45.544898)"><g><path d="M 17.171875 -12.65625 C 18.222656 -12.101562 19.039062 -11.328125 19.625 -10.328125 C 20.207031 -9.335938 20.5 -8.203125 20.5 -6.921875 C 20.5 -5.640625 20.160156 -4.472656 19.484375 -3.421875 C 18.816406 -2.367188 17.90625 -1.535156 16.75 -0.921875 C 15.59375 -0.304688 14.328125 0 12.953125 0 L 2.75 0 L 2.75 -24 L 12.6875 -24 C 14.050781 -24 15.273438 -23.726562 16.359375 -23.1875 C 17.453125 -22.65625 18.3125 -21.921875 18.9375 -20.984375 C 19.570312 -20.046875 19.890625 -18.992188 19.890625 -17.828125 C 19.890625 -16.796875 19.644531 -15.820312 19.15625 -14.90625 C 18.675781 -14 18.015625 -13.25 17.171875 -12.65625 Z M 14.84375 -17 C 14.84375 -17.757812 14.601562 -18.378906 14.125 -18.859375 C 13.644531 -19.335938 12.992188 -19.578125 12.171875 -19.578125 L 7.84375 -19.578125 L 7.84375 -14.46875 L 12.171875 -14.46875 C 12.992188 -14.46875 13.644531 -14.707031 14.125 -15.1875 C 14.601562 -15.664062 14.84375 -16.269531 14.84375 -17 Z M 12.4375 -4.765625 C 13.3125 -4.765625 14.003906 -5.015625 14.515625 -5.515625 C 15.035156 -6.023438 15.296875 -6.675781 15.296875 -7.46875 C 15.296875 -8.25 15.035156 -8.890625 14.515625 -9.390625 C 14.003906 -9.890625 13.3125 -10.140625 12.4375 -10.140625 L 7.84375 -10.140625 L 7.84375 -4.765625 Z M 12.4375 -4.765625 "/></g></g></g><g fill="#202020" fill-opacity="1"><g transform="translate(105.054509, 45.544898)"><g><path d="M 2.40625 -20.984375 L 2.40625 -25.640625 L 7.40625 -25.640625 L 7.40625 -20.984375 Z M 2.40625 0 L 2.40625 -18.515625 L 7.40625 -18.515625 L 7.40625 0 Z M 2.40625 0 "/></g></g></g><g fill="#202020" fill-opacity="1"><g transform="translate(114.857288, 45.544898)"><g><path d="M 19.40625 0 L 13.328125 0 L 7.40625 -8.84375 L 7.40625 0 L 2.40625 0 L 2.40625 -25.203125 L 7.40625 -25.203125 L 7.40625 -10.28125 L 12.953125 -18.515625 L 18.71875 -18.515625 L 12.484375 -9.703125 Z M 19.40625 0 "/></g></g></g><g fill="#202020" fill-opacity="1"><g transform="translate(134.085816, 45.544898)"><g><path d="M 17.515625 -18.546875 L 21.25 -18.546875 L 21.25 -0.03125 L 17.3125 -0.03125 L 16.90625 -1.6875 C 16.101562 -1 15.191406 -0.457031 14.171875 -0.0625 C 13.160156 0.320312 12.070312 0.515625 10.90625 0.515625 C 9.050781 0.515625 7.390625 0.0859375 5.921875 -0.765625 C 4.460938 -1.628906 3.3125 -2.796875 2.46875 -4.265625 C 1.625 -5.742188 1.203125 -7.421875 1.203125 -9.296875 C 1.203125 -11.140625 1.625 -12.796875 2.46875 -14.265625 C 3.3125 -15.742188 4.460938 -16.90625 5.921875 -17.75 C 7.390625 -18.601562 9.050781 -19.03125 10.90625 -19.03125 C 12.09375 -19.03125 13.195312 -18.828125 14.21875 -18.421875 C 15.25 -18.023438 16.164062 -17.472656 16.96875 -16.765625 Z M 11.3125 -4.21875 C 12.269531 -4.21875 13.128906 -4.429688 13.890625 -4.859375 C 14.660156 -5.296875 15.265625 -5.894531 15.703125 -6.65625 C 16.140625 -7.425781 16.359375 -8.304688 16.359375 -9.296875 C 16.359375 -10.253906 16.140625 -11.113281 15.703125 -11.875 C 15.265625 -12.644531 14.660156 -13.25 13.890625 -13.6875 C 13.128906 -14.132812 12.269531 -14.359375 11.3125 -14.359375 C 10.332031 -14.359375 9.460938 -14.132812 8.703125 -13.6875 C 7.953125 -13.25 7.359375 -12.644531 6.921875 -11.875 C 6.492188 -11.113281 6.28125 -10.253906 6.28125 -9.296875 C 6.28125 -8.304688 6.492188 -7.429688 6.921875 -6.671875 C 7.359375 -5.921875 7.953125 -5.320312 8.703125 -4.875 C 9.460938 -4.4375 10.332031 -4.21875 11.3125 -4.21875 Z M 11.3125 -4.21875 "/></g></g></g><g fill="#202020" fill-opacity="1"><g transform="translate(157.735874, 45.544898)"><g><path d="M 2.40625 0 L 2.40625 -25.203125 L 7.40625 -25.203125 L 7.40625 0 Z M 2.40625 0 "/></g></g></g><g fill="#202020" fill-opacity="1"><g transform="translate(167.538654, 45.544898)"><g><path d="M 12.515625 -19.03125 C 14.367188 -19.03125 16.023438 -18.601562 17.484375 -17.75 C 18.941406 -16.90625 20.09375 -15.742188 20.9375 -14.265625 C 21.789062 -12.796875 22.21875 -11.125 22.21875 -9.25 C 22.21875 -7.375 21.789062 -5.695312 20.9375 -4.21875 C 20.09375 -2.75 18.941406 -1.585938 17.484375 -0.734375 C 16.023438 0.117188 14.367188 0.546875 12.515625 0.546875 C 11.554688 0.546875 10.640625 0.40625 9.765625 0.125 C 8.898438 -0.144531 8.113281 -0.519531 7.40625 -1 L 7.40625 6.6875 L 2.40625 6.6875 L 2.40625 -18.515625 L 5.71875 -18.515625 L 6.578125 -16.828125 C 7.359375 -17.515625 8.25 -18.050781 9.25 -18.4375 C 10.257812 -18.832031 11.347656 -19.03125 12.515625 -19.03125 Z M 12.09375 -4.1875 C 13.0625 -4.1875 13.925781 -4.40625 14.6875 -4.84375 C 15.457031 -5.289062 16.054688 -5.894531 16.484375 -6.65625 C 16.921875 -7.425781 17.140625 -8.289062 17.140625 -9.25 C 17.140625 -10.21875 16.921875 -11.082031 16.484375 -11.84375 C 16.054688 -12.613281 15.457031 -13.21875 14.6875 -13.65625 C 13.925781 -14.101562 13.0625 -14.328125 12.09375 -14.328125 C 11.113281 -14.328125 10.242188 -14.101562 9.484375 -13.65625 C 8.734375 -13.21875 8.140625 -12.613281 7.703125 -11.84375 C 7.273438 -11.082031 7.0625 -10.21875 7.0625 -9.25 C 7.0625 -8.289062 7.273438 -7.425781 7.703125 -6.65625 C 8.140625 -5.894531 8.734375 -5.289062 9.484375 -4.84375 C 10.242188 -4.40625 11.113281 -4.1875 12.09375 -4.1875 Z M 12.09375 -4.1875 "/></g></g></g><g fill="#202020" fill-opacity="1"><g transform="translate(190.914509, 45.544898)"><g><path d="M 11.203125 0.515625 C 9.285156 0.515625 7.570312 0.0859375 6.0625 -0.765625 C 4.5625 -1.628906 3.375 -2.796875 2.5 -4.265625 C 1.632812 -5.742188 1.203125 -7.40625 1.203125 -9.25 C 1.203125 -11.125 1.632812 -12.796875 2.5 -14.265625 C 3.375 -15.742188 4.5625 -16.90625 6.0625 -17.75 C 7.570312 -18.601562 9.285156 -19.03125 11.203125 -19.03125 C 13.109375 -19.03125 14.8125 -18.601562 16.3125 -17.75 C 17.820312 -16.90625 19.007812 -15.742188 19.875 -14.265625 C 20.75 -12.796875 21.1875 -11.125 21.1875 -9.25 C 21.1875 -7.40625 20.75 -5.742188 19.875 -4.265625 C 19.007812 -2.796875 17.820312 -1.628906 16.3125 -0.765625 C 14.8125 0.0859375 13.109375 0.515625 11.203125 0.515625 Z M 11.203125 -4.1875 C 12.648438 -4.1875 13.828125 -4.65625 14.734375 -5.59375 C 15.648438 -6.53125 16.109375 -7.75 16.109375 -9.25 C 16.109375 -10.757812 15.648438 -11.984375 14.734375 -12.921875 C 13.828125 -13.859375 12.648438 -14.328125 11.203125 -14.328125 C 9.742188 -14.328125 8.554688 -13.859375 7.640625 -12.921875 C 6.734375 -11.984375 6.28125 -10.757812 6.28125 -9.25 C 6.28125 -7.75 6.734375 -6.53125 7.640625 -5.59375 C 8.554688 -4.65625 9.742188 -4.1875 11.203125 -4.1875 Z M 11.203125 -4.1875 "/></g></g></g><g fill="#202020" fill-opacity="1"><g transform="translate(83.049664, 76.261761)"><g><path d="M 10.703125 0.484375 C 8.867188 0.484375 7.253906 0.148438 5.859375 -0.515625 C 4.460938 -1.179688 3.367188 -2.128906 2.578125 -3.359375 C 1.796875 -4.585938 1.40625 -6.0625 1.40625 -7.78125 L 6.65625 -7.78125 C 6.65625 -6.613281 7.054688 -5.75 7.859375 -5.1875 C 8.671875 -4.632812 9.601562 -4.359375 10.65625 -4.359375 C 11.320312 -4.359375 11.945312 -4.460938 12.53125 -4.671875 C 13.113281 -4.890625 13.59375 -5.210938 13.96875 -5.640625 C 14.34375 -6.066406 14.53125 -6.578125 14.53125 -7.171875 C 14.53125 -7.785156 14.3125 -8.269531 13.875 -8.625 C 13.445312 -8.976562 12.863281 -9.269531 12.125 -9.5 C 11.394531 -9.726562 10.597656 -9.941406 9.734375 -10.140625 C 8.847656 -10.347656 7.9375 -10.597656 7 -10.890625 C 6.0625 -11.191406 5.191406 -11.585938 4.390625 -12.078125 C 3.585938 -12.578125 2.945312 -13.242188 2.46875 -14.078125 C 1.988281 -14.910156 1.75 -15.96875 1.75 -17.25 C 1.75 -19.550781 2.53125 -21.320312 4.09375 -22.5625 C 5.65625 -23.8125 7.773438 -24.4375 10.453125 -24.4375 C 13.191406 -24.4375 15.316406 -23.742188 16.828125 -22.359375 C 18.335938 -20.984375 19.09375 -19.109375 19.09375 -16.734375 L 13.953125 -16.734375 C 13.953125 -17.753906 13.585938 -18.507812 12.859375 -19 C 12.128906 -19.5 11.28125 -19.75 10.3125 -19.75 C 9.46875 -19.75 8.691406 -19.566406 7.984375 -19.203125 C 7.273438 -18.835938 6.921875 -18.265625 6.921875 -17.484375 C 6.921875 -16.910156 7.128906 -16.457031 7.546875 -16.125 C 7.972656 -15.789062 8.535156 -15.515625 9.234375 -15.296875 C 9.929688 -15.085938 10.703125 -14.878906 11.546875 -14.671875 C 12.460938 -14.441406 13.398438 -14.171875 14.359375 -13.859375 C 15.316406 -13.554688 16.207031 -13.140625 17.03125 -12.609375 C 17.851562 -12.085938 18.519531 -11.390625 19.03125 -10.515625 C 19.550781 -9.648438 19.8125 -8.554688 19.8125 -7.234375 C 19.8125 -5.492188 19.394531 -4.050781 18.5625 -2.90625 C 17.726562 -1.769531 16.625 -0.921875 15.25 -0.359375 C 13.882812 0.203125 12.367188 0.484375 10.703125 0.484375 Z M 10.703125 0.484375 "/></g></g></g><g fill="#202020" fill-opacity="1"><g transform="translate(104.266163, 76.261761)"><g><path d="M 13 -18.953125 C 15.09375 -18.953125 16.742188 -18.253906 17.953125 -16.859375 C 19.171875 -15.472656 19.78125 -13.601562 19.78125 -11.25 L 19.78125 0 L 14.78125 0 L 14.78125 -10.421875 C 14.78125 -11.796875 14.523438 -12.828125 14.015625 -13.515625 C 13.515625 -14.210938 12.691406 -14.5625 11.546875 -14.5625 C 10.316406 -14.5625 9.316406 -14.132812 8.546875 -13.28125 C 7.785156 -12.425781 7.40625 -11.242188 7.40625 -9.734375 L 7.40625 0 L 2.40625 0 L 2.40625 -25.203125 L 7.40625 -25.203125 L 7.40625 -16.796875 C 8.113281 -17.460938 8.945312 -17.988281 9.90625 -18.375 C 10.863281 -18.757812 11.894531 -18.953125 13 -18.953125 Z M 13 -18.953125 "/></g></g></g><g fill="#202020" fill-opacity="1"><g transform="translate(126.236724, 76.261761)"><g><path d="M 11.203125 0.515625 C 9.285156 0.515625 7.570312 0.0859375 6.0625 -0.765625 C 4.5625 -1.628906 3.375 -2.796875 2.5 -4.265625 C 1.632812 -5.742188 1.203125 -7.40625 1.203125 -9.25 C 1.203125 -11.125 1.632812 -12.796875 2.5 -14.265625 C 3.375 -15.742188 4.5625 -16.90625 6.0625 -17.75 C 7.570312 -18.601562 9.285156 -19.03125 11.203125 -19.03125 C 13.109375 -19.03125 14.8125 -18.601562 16.3125 -17.75 C 17.820312 -16.90625 19.007812 -15.742188 19.875 -14.265625 C 20.75 -12.796875 21.1875 -11.125 21.1875 -9.25 C 21.1875 -7.40625 20.75 -5.742188 19.875 -4.265625 C 19.007812 -2.796875 17.820312 -1.628906 16.3125 -0.765625 C 14.8125 0.0859375 13.109375 0.515625 11.203125 0.515625 Z M 11.203125 -4.1875 C 12.648438 -4.1875 13.828125 -4.65625 14.734375 -5.59375 C 15.648438 -6.53125 16.109375 -7.75 16.109375 -9.25 C 16.109375 -10.757812 15.648438 -11.984375 14.734375 -12.921875 C 13.828125 -13.859375 12.648438 -14.328125 11.203125 -14.328125 C 9.742188 -14.328125 8.554688 -13.859375 7.640625 -12.921875 C 6.734375 -11.984375 6.28125 -10.757812 6.28125 -9.25 C 6.28125 -7.75 6.734375 -6.53125 7.640625 -5.59375 C 8.554688 -4.65625 9.742188 -4.1875 11.203125 -4.1875 Z M 11.203125 -4.1875 "/></g></g></g><g fill="#202020" fill-opacity="1"><g transform="translate(148.618589, 76.261761)"><g><path d="M 12.515625 -19.03125 C 14.367188 -19.03125 16.023438 -18.601562 17.484375 -17.75 C 18.941406 -16.90625 20.09375 -15.742188 20.9375 -14.265625 C 21.789062 -12.796875 22.21875 -11.125 22.21875 -9.25 C 22.21875 -7.375 21.789062 -5.695312 20.9375 -4.21875 C 20.09375 -2.75 18.941406 -1.585938 17.484375 -0.734375 C 16.023438 0.117188 14.367188 0.546875 12.515625 0.546875 C 11.554688 0.546875 10.640625 0.40625 9.765625 0.125 C 8.898438 -0.144531 8.113281 -0.519531 7.40625 -1 L 7.40625 6.6875 L 2.40625 6.6875 L 2.40625 -18.515625 L 5.71875 -18.515625 L 6.578125 -16.828125 C 7.359375 -17.515625 8.25 -18.050781 9.25 -18.4375 C 10.257812 -18.832031 11.347656 -19.03125 12.515625 -19.03125 Z M 12.09375 -4.1875 C 13.0625 -4.1875 13.925781 -4.40625 14.6875 -4.84375 C 15.457031 -5.289062 16.054688 -5.894531 16.484375 -6.65625 C 16.921875 -7.425781 17.140625 -8.289062 17.140625 -9.25 C 17.140625 -10.21875 16.921875 -11.082031 16.484375 -11.84375 C 16.054688 -12.613281 15.457031 -13.21875 14.6875 -13.65625 C 13.925781 -14.101562 13.0625 -14.328125 12.09375 -14.328125 C 11.113281 -14.328125 10.242188 -14.101562 9.484375 -13.65625 C 8.734375 -13.21875 8.140625 -12.613281 7.703125 -11.84375 C 7.273438 -11.082031 7.0625 -10.21875 7.0625 -9.25 C 7.0625 -8.289062 7.273438 -7.425781 7.703125 -6.65625 C 8.140625 -5.894531 8.734375 -5.289062 9.484375 -4.84375 C 10.242188 -4.40625 11.113281 -4.1875 12.09375 -4.1875 Z M 12.09375 -4.1875 "/></g></g></g></svg>